<?xml version="1.0" encoding="utf-8"?>
<!-- Generator: Adobe Illustrator 26.1.0, SVG Export Plug-In . SVG Version: 6.00 Build 0)  -->
<svg version="1.1" id="Layer_1" xmlns="http://www.w3.org/2000/svg" xmlns:xlink="http://www.w3.org/1999/xlink" x="0px" y="0px"
	 viewBox="0 0 60 60" style="enable-background:new 0 0 60 60;" xml:space="preserve">
<style type="text/css">
	.st0{fill:#FFFFFF;stroke:#000000;stroke-width:3;stroke-miterlimit:10;}
</style>
<path class="st0" d="M11.2,46.62H3.57c-0.9,0-1.62-0.73-1.62-1.62V32.08c0-2.89,2.34-5.23,5.23-5.23h0.41
	c2.89,0,5.23,2.34,5.23,5.23v12.92C12.83,45.89,12.1,46.62,11.2,46.62z"/>
<path class="st0" d="M26.18,46.62h-7.64c-0.9,0-1.62-0.73-1.62-1.62V22.79c0-2.89,2.34-5.23,5.23-5.23h0.41
	c2.89,0,5.23,2.34,5.23,5.23v22.21C27.8,45.89,27.07,46.62,26.18,46.62z"/>
<path class="st0" d="M41.31,46.62h-7.64c-0.9,0-1.62-0.73-1.62-1.62V27.43c0-2.89,2.34-5.23,5.23-5.23h0.41
	c2.89,0,5.23,2.34,5.23,5.23v17.56C42.93,45.89,42.2,46.62,41.31,46.62z"/>
<path class="st0" d="M56.43,46.62H48.8c-0.9,0-1.62-0.73-1.62-1.62V14.96c0-2.89,2.34-5.23,5.23-5.23h0.41
	c2.89,0,5.23,2.34,5.23,5.23v30.04C58.06,45.89,57.33,46.62,56.43,46.62z"/>
</svg>
