<?xml version="1.0" encoding="utf-8"?>
<!-- Generator: Adobe Illustrator 26.1.0, SVG Export Plug-In . SVG Version: 6.00 Build 0)  -->
<svg version="1.1" id="Layer_1" xmlns="http://www.w3.org/2000/svg" xmlns:xlink="http://www.w3.org/1999/xlink" x="0px" y="0px"
	 viewBox="0 0 60 60" style="enable-background:new 0 0 60 60;" xml:space="preserve">
<style type="text/css">
	.st0{fill:#FFFFFF;stroke:#000000;stroke-width:3;stroke-miterlimit:10;}
</style>
<path class="st0" d="M42.05,24l1.09,6.74c0.02,0.13-0.12,0.22-0.22,0.14l-7.75-6.39c-0.02-0.02-0.05-0.03-0.08-0.03H14.47
	c-0.07,0-0.14-0.06-0.14-0.14V3.89c0-0.08,0.06-0.14,0.14-0.14H47.6c0.07,0,0.14,0.06,0.14,0.14v19.66c0,0.08-0.06,0.14-0.13,0.14
	l-5.43,0.15C42.1,23.84,42.04,23.91,42.05,24z"/>
<path class="st0" d="M5.71,45.63l-0.75,4.65c-0.01,0.09,0.08,0.15,0.15,0.09l5.34-4.4c0.02-0.01,0.04-0.02,0.06-0.02h14.22
	c0.05,0,0.09-0.04,0.09-0.1V31.76c0-0.05-0.04-0.1-0.09-0.1H1.88c-0.05,0-0.09,0.04-0.09,0.1v13.55c0,0.05,0.04,0.1,0.09,0.1
	l3.74,0.1C5.68,45.52,5.72,45.57,5.71,45.63z"/>
<path class="st0" d="M52.97,53.43l0.75,4.65c0.01,0.09-0.08,0.15-0.15,0.09l-5.34-4.4c-0.02-0.01-0.04-0.02-0.06-0.02H33.95
	c-0.05,0-0.09-0.04-0.09-0.1V39.57c0-0.05,0.04-0.1,0.09-0.1H56.8c0.05,0,0.09,0.04,0.09,0.1v13.55c0,0.05-0.04,0.1-0.09,0.1
	l-3.74,0.1C53.01,53.32,52.96,53.37,52.97,53.43z"/>
</svg>
